<?xml version="1.0" standalone="no"?>
<!DOCTYPE svg PUBLIC "-//W3C//DTD SVG 20010904//EN"
 "http://www.w3.org/TR/2001/REC-SVG-20010904/DTD/svg10.dtd">
<svg version="1.0" xmlns="http://www.w3.org/2000/svg"
 width="512.000000pt" height="512.000000pt" viewBox="0 0 512.000000 512.000000"
 preserveAspectRatio="xMidYMid meet">
<metadata>
Created by potrace 1.14, written by Peter Selinger 2001-2017
</metadata>
<g transform="translate(0.000000,512.000000) scale(0.100000,-0.100000)"
fill="#000000" stroke="none">
<path d="M2340 5109 c-781 -67 -1485 -489 -1923 -1154 -91 -139 -208 -372
-265 -530 -150 -415 -188 -888 -107 -1328 128 -692 525 -1288 1120 -1680 139
-91 372 -208 530 -265 415 -150 888 -188 1328 -107 692 128 1288 525 1680
1120 91 139 208 372 265 530 150 415 188 888 107 1328 -128 692 -525 1288
-1120 1680 -134 88 -368 206 -520 262 -334 123 -732 175 -1095 144z m-1143
-943 l28 -24 -4 -1071 c-2 -589 -1 -1071 2 -1071 3 0 36 48 73 108 161 258
340 502 572 781 138 166 151 185 282 425 147 269 391 689 418 720 49 54 118
61 156 15 48 -57 29 -189 -49 -336 -80 -152 -280 -434 -460 -653 -37 -44 -95
-136 -142 -225 -109 -204 -353 -680 -353 -688 0 -4 40 -4 89 0 228 16 340 -50
567 -330 l104 -129 14 34 c26 61 28 85 12 131 -23 69 -7 203 29 235 37 32 78
29 109 -9 14 -17 26 -38 26 -48 0 -31 10 -30 85 5 87 40 273 104 303 104 12 0
23 4 26 9 4 5 -5 78 -19 163 -29 182 -41 298 -54 513 -13 210 -26 826 -18 857
12 45 97 64 134 31 17 -15 22 -40 32 -153 13 -153 35 -261 121 -575 98 -362
182 -769 215 -1035 9 -74 19 -159 23 -188 l7 -53 65 93 c36 51 110 138 165
194 202 204 341 249 743 242 179 -3 184 -4 203 -27 26 -32 24 -77 -6 -106 -24
-25 -26 -25 -214 -25 -302 0 -392 -19 -523 -113 -94 -68 -186 -176 -307 -361
-117 -179 -149 -216 -186 -216 -72 0 -90 38 -99 203 -3 71 -9 162 -13 203 l-6
74 -40 0 c-59 0 -123 35 -150 81 -12 21 -29 39 -38 39 -33 0 -188 -50 -280
-90 -133 -59 -154 -76 -167 -144 -25 -122 -93 -218 -167 -232 -69 -13 -116 23
-256 196 -145 179 -205 232 -286 256 -69 20 -184 14 -283 -14 l-65 -18 -188
-368 c-141 -276 -190 -382 -198 -424 -17 -103 -41 -172 -67 -193 -49 -38 -113
-15 -128 47 -4 15 1 60 11 103 17 71 33 271 21 271 -3 0 -16 -5 -30 -11 -32
-15 -78 2 -96 36 -27 50 10 155 92 264 l41 54 -4 1209 -4 1210 28 24 c36 30
68 30 104 0z"/>
<path d="M3181 2690 c-1 -48 25 -259 51 -407 18 -105 24 -122 41 -127 12 -3
23 -3 26 -1 5 5 -58 323 -93 470 -17 69 -25 89 -25 65z"/>
<path d="M1517 2158 c-41 -62 -74 -114 -72 -116 1 -1 13 2 27 8 16 8 41 44 76
116 29 57 50 104 47 104 -2 0 -38 -51 -78 -112z"/>
<path d="M1277 1702 c-58 -59 -58 -59 -55 -113 l3 -54 58 113 c31 61 56 112
54 112 -1 0 -29 -26 -60 -58z"/>
</g>
</svg>
